<svg xmlns="http://www.w3.org/2000/svg" xml:space="preserve" viewBox="0 0 512 512"><path fill="#673d17" d="M495.996 16c0-8.832-7.168-16-16-16s-16 7.168-16 16v111.832c0 .056-.016.104-.016.16 0 8.824-7.176 16-16 16-.024 0-.056.008-.08.008h-15.904V16c0-8.832-7.168-16-16-16s-16 7.168-16 16v128h-32V16c0-8.832-7.168-16-16-16s-16 7.168-16 16v128c-35.288 0-64 28.712-64 64 0 8.832 7.168 16 16 16s16-7.168 16-16c0-17.64 14.352-32 32-32h112c.064 0 .112-.016.168-.016 26.272-.104 47.616-21.408 47.8-47.664 0-.112.032-.208.032-.32V16z"/><path fill="#c38449" d="m438.204 301.592-74.912-79.608c-1.304-1.288-5.16 1.824-6.96 2.072-1.784.256-3.376 1.336-4.304 2.936-13.784 24.24-9.48 55.312 10.496 75.568C373.604 313.8 388.572 320 404.62 320h.008c11.264 0 22.488-3.08 32.424-8.888a6.02 6.02 0 0 0 2.896-4.456 6.03 6.03 0 0 0-1.744-5.064z"/><path fill="#b06437" d="M404.628 320c9.16 0 18.24-2.136 26.672-6.016L359.996 264c-1.064 17.608-10.568 25.28 2.52 38.56C373.604 313.8 388.572 320 404.628 320z"/><path fill="#ce8b4e" d="m73.788 301.592 74.912-79.608c1.304-1.288 5.16 1.824 6.96 2.072 1.784.256 3.376 1.336 4.304 2.936 13.784 24.24 9.48 55.312-10.496 75.568C138.388 313.8 123.42 320 107.372 320h-.008c-11.264 0-22.488-3.08-32.424-8.888a6.02 6.02 0 0 1-2.896-4.456 6.03 6.03 0 0 1 1.744-5.064z"/><path fill="#b06437" d="M107.364 320c-9.16 0-18.24-2.136-26.672-6.016L152.004 264c1.064 17.608 10.568 25.28-2.52 38.56C138.388 313.8 123.42 320 107.364 320z"/><path fill="#673d17" d="M176.004 144V16c0-8.832-7.168-16-16-16s-16 7.168-16 16v128h-32V16c0-8.832-7.168-16-16-16s-16 7.168-16 16v128H64.092c-.024 0-.056-.008-.08-.008-8.824 0-16-7.176-16-16 0-.056-.016-.104-.016-.16V16c0-8.832-7.168-16-16-16S16.004 7.168 16.004 16v112c0 .112.032.208.032.32.176 26.256 21.52 47.56 47.8 47.664.056 0 .104.016.168.016h112c17.648 0 32 14.36 32 32 0 8.832 7.168 16 16 16s16-7.168 16-16c0-35.288-28.712-64-64-64z"/><path fill="#7c4b22" d="M351.996 0c-8.832 0-16 7.168-16 16v128h16V0zM160.004 0c-8.832 0-16 7.168-16 16v128h16V0zm-64 0c-8.84 0-16 7.168-16 16v128h16V0zm319.992 0c-8.832 0-16 7.168-16 16v128h16V0zm48 16v112c0 7.736-5.488 14.184-12.776 15.672 16.136-1.64 28.776-15.112 28.776-31.672V0c-8.832 0-16 7.168-16 16zM32.004 128V0c-8.84 0-16 7.168-16 16v112c0 26.504 21.496 48 48 48 2.736 0 5.392-.28 8-.72-22.688-3.808-40-23.496-40-47.28z"/><path fill="#ce8b4e" d="m136.324 258.176 24.68 206.728C164.092 490.872 189.012 512 216.572 512h78.864c27.552 0 52.472-21.128 55.56-47.088l24.68-206.736c1.616-13.496-2.904-26.68-12.384-36.192C354.3 212.96 341.86 208 328.276 208h-144.56c-13.584 0-26.024 4.96-35.016 13.984-9.472 9.52-14 22.704-12.376 36.192z"/><path fill="#c38449" d="M328.276 208h-72.272v304h39.432c27.552 0 52.472-21.128 55.56-47.088l24.68-206.736c1.616-13.496-2.904-26.68-12.384-36.192C354.3 212.96 341.86 208 328.276 208z"/><g fill="#123247"><circle cx="224.004" cy="288" r="16"/><circle cx="287.996" cy="288" r="16"/></g><g fill="#e2e5e7"><circle cx="220.004" cy="284" r="4"/><circle cx="283.996" cy="284" r="4"/></g><path fill="#b06437" d="M248.004 456h16v56h-16z"/><path fill="#ef4130" d="M310.332 416.896A16.003 16.003 0 0 0 295.996 408h-79.992a16.003 16.003 0 0 0-12.728 25.696c8.768 11.52 31.472 38.304 52.728 38.304 21.248 0 43.952-26.784 52.72-38.304a15.99 15.99 0 0 0 1.608-16.8z"/><path fill="#d93b2b" d="M310.332 416.896c-1.664-3.368-4.488-5.832-7.776-7.328 2.344 5.312 1.704 11.48-1.832 16.128-8.776 11.52-31.48 38.304-52.72 38.304-11.688 0-23.816-8.112-33.824-17.328C225.228 458.592 240.964 472 256.004 472c21.248 0 43.952-26.784 52.72-38.304a15.99 15.99 0 0 0 1.608-16.8z"/><g/><g/><g/><g/><g/><g/><g/><g/><g/><g/><g/><g/><g/><g/><g/></svg>