<svg xmlns="http://www.w3.org/2000/svg" viewBox="0 0 512 512"><circle cx="221.091" cy="325.818" r="11.636"/><circle cx="290.909" cy="325.818" r="11.636"/><path d="M453.818 0c-6.982 0-11.636 4.655-11.636 11.636v128c0 6.982-4.655 11.636-11.636 11.636h-25.6c1.164-3.491 2.327-6.982 2.327-11.636V34.909c0-6.982-4.655-11.636-11.636-11.636-6.982 0-11.636 4.655-11.636 11.636v104.727c0 6.982-4.655 11.636-11.636 11.636h-23.273v-93.09c0-6.982-4.655-11.636-11.636-11.636-6.982 0-11.636 4.655-11.636 11.636v93.091c-19.782 0-34.909 15.127-34.909 34.909v46.545h-69.818v-46.545c0-19.782-15.127-34.909-34.909-34.909V58.182c0-6.982-4.655-11.636-11.636-11.636s-11.636 4.655-11.636 11.636v93.091h-23.273c-6.982 0-11.636-4.655-11.636-11.636V34.909c0-6.982-4.655-11.636-11.636-11.636s-11.636 4.655-11.636 11.636v104.727c0 4.655 1.164 8.145 2.327 11.636h-25.6c-6.982 0-11.636-4.655-11.636-11.636v-128C69.818 4.655 65.164 0 58.182 0S46.545 4.655 46.545 11.636v128c0 19.782 15.127 34.909 34.909 34.909h104.727c6.982 0 11.636 4.655 11.636 11.636v46.545h-11.636c-5.818 0-10.473 1.164-15.127 3.491-8.145-22.109-29.091-38.4-54.691-38.4H69.818c-6.982 0-11.636 4.655-11.636 11.636 0 32.582 25.6 58.182 58.182 58.182h34.909v83.782c0 15.127 2.327 30.255 8.146 44.218l33.745 93.091C197.818 502.691 211.782 512 225.745 512h60.509c15.127 0 27.927-9.309 32.582-23.273l33.745-93.091c4.655-13.964 8.145-29.091 8.145-44.218v-83.782h34.909c32.582 0 58.182-25.6 58.182-58.182 0-6.982-4.655-11.636-11.636-11.636h-46.545c-25.6 0-46.545 16.291-54.691 38.4-4.655-2.327-9.309-3.491-15.127-3.491h-11.636v-46.545c0-6.982 4.655-11.636 11.636-11.636h104.727c19.782 0 34.909-15.127 34.909-34.909v-128C465.455 4.655 460.8 0 453.818 0zM116.364 244.364c-15.127 0-27.927-9.309-32.582-23.273h32.582c15.127 0 27.927 9.309 32.582 23.273h-32.582zm279.272-23.273h32.582c-4.655 13.964-17.455 23.273-32.582 23.273h-32.582c4.655-13.964 17.455-23.273 32.582-23.273zM324.655 256c8.145 0 12.8 4.655 12.8 11.636v83.782c0 12.8-2.327 24.436-5.818 36.073l-33.745 93.091c-2.327 4.655-6.982 8.145-11.636 8.145h-18.618v-23.273c0-6.982 4.655-11.636 11.636-11.636 1.164 0 2.327 0 4.655-1.164 0 0 1.164 0 1.164-1.164 1.164 0 1.164 0 2.327-1.164 1.164 0 1.164-1.164 1.164-2.327l1.164-1.164v-8.145c0-1.163-1.164-1.164-1.164-2.327 0 0 0-1.164-1.164-1.164-6.982-8.145-16.291-12.8-25.6-13.964-13.964-2.327-26.764 3.491-37.236 15.127l-1.164 1.164s0 1.164-1.164 1.164c0 1.164-1.164 1.164-1.164 2.327v8.145c0 1.164 1.164 1.164 1.164 1.164 0 1.164 1.164 1.164 1.164 2.327 0 0 1.164 0 1.164 1.164 1.164 0 1.164 1.164 2.327 1.164h3.491c6.982 0 11.636 4.655 11.636 11.636v23.273H223.42c-4.655 0-9.309-3.491-10.473-8.146L179.2 388.655c-4.655-11.636-5.818-23.273-5.818-36.073v-84.945c0-6.982 4.655-11.636 11.636-11.636h139.637z"/></svg>