<svg xmlns="http://www.w3.org/2000/svg" viewBox="0 0 511.998 511.998" style="enable-background:new 0 0 511.998 511.998" xml:space="preserve"><path style="fill:#84542c" d="M441.378 406.067c0 82.044-82.997 105.931-185.379 105.931S70.62 488.111 70.62 406.067c0-58.5 82.997-105.931 185.379-105.931s185.379 47.431 185.379 105.931"/><path style="fill:#a46f3e" d="M239.677 300.607c.45-.026.892-.088 1.342-.106 4.237-.283 8.519-.362 12.844-.362h4.273c4.326 0 8.598.079 12.826.353.503.026.989.088 1.483.115 54.343 2.737 101.809 18.882 132.511 42.593l-7.654-105.834c-6.4-69.438-66.737-122.606-139.043-122.606h-4.52c-72.307 0-132.643 53.169-139.043 122.598L107.042 343.2c30.72-23.729 78.248-39.874 132.635-42.593"/><path style="fill:#e5ccaa" d="m454.828 78.909-44.959-72.06c-5.244-7.212-15.254-9.004-22.678-4.052-7.389 4.917-9.604 14.777-5.032 22.396l40.766 55.393c3.169 4.299-2.251 9.666-6.524 6.462l-66.728-50.052c-10.505-5.252-22.855 2.383-22.855 14.124a15.79 15.79 0 0 0 8.73 14.124l32.936 16.949c13.497 6.947 15.21 25.565 3.213 34.86l-30.323 24.038c10.69 7.583 20.259 16.552 28.337 26.721l79.854-57.909c10.144-7.018 12.519-21.019 5.263-30.994M170.624 141.09l-30.323-24.038c-11.997-9.295-10.284-27.913 3.213-34.86l32.936-16.949a15.787 15.787 0 0 0 8.73-14.124c0-11.741-12.35-19.377-22.855-14.124L95.598 87.047c-4.273 3.204-9.693-2.163-6.524-6.462l40.766-55.393c4.573-7.618 2.348-17.479-5.032-22.396-7.424-4.952-17.434-3.16-22.678 4.052l-44.959 72.06c-7.256 9.975-4.882 23.976 5.261 31.002l79.854 57.9c8.078-10.169 17.647-19.137 28.338-26.72"/><path style="fill:#6ca1e9" d="M229.516 238.343c0 14.627-11.855 26.483-26.483 26.483s-26.483-11.855-26.483-26.483 11.855-26.483 26.483-26.483 26.483 11.856 26.483 26.483M335.447 238.343c0 14.627-11.855 26.483-26.483 26.483s-26.483-11.855-26.483-26.483 11.855-26.483 26.483-26.483 26.483 11.856 26.483 26.483"/><path style="fill:#a46f3e" d="M203.033 485.516c-17.576 0-44.138-14.08-44.138-35.31 0-4.873 3.955-8.828 8.828-8.828 4.873 0 8.828 3.955 8.828 8.828 0 8.527 15.545 17.655 26.483 17.655 29.29 0 44.138-14.848 44.138-44.138 0-4.873 3.955-8.828 8.828-8.828 4.873 0 8.828 3.955 8.828 8.828-.002 39.273-22.521 61.793-61.795 61.793"/><path style="fill:#a46f3e" d="M308.964 485.516c-39.274 0-61.793-22.519-61.793-61.793 0-4.873 3.955-8.828 8.828-8.828 4.873 0 8.828 3.955 8.828 8.828 0 29.29 14.848 44.138 44.138 44.138 10.937 0 26.483-9.128 26.483-17.655 0-4.873 3.955-8.828 8.828-8.828 4.873 0 8.828 3.955 8.828 8.828-.002 21.23-26.564 35.31-44.14 35.31"/><path style="fill:#84542c" d="M282.49 203.033a8.822 8.822 0 0 1-7.071-3.531c-2.922-3.902-2.136-9.437 1.766-12.359l39.009-29.255L373.547 177c4.626 1.545 7.133 6.541 5.588 11.167-1.545 4.626-6.532 7.15-11.167 5.588l-48.578-16.199-31.612 23.711a8.792 8.792 0 0 1-5.288 1.766M229.507 203.033a8.794 8.794 0 0 1-5.288-1.766l-31.612-23.711-48.578 16.199c-4.643 1.562-9.622-.962-11.167-5.588s.962-9.622 5.588-11.167l57.353-19.112 39.009 29.255c3.902 2.922 4.687 8.457 1.766 12.359a8.822 8.822 0 0 1-7.071 3.531"/><path style="fill:#84542c" d="M487.279 161.337c-9.843-2.913-34.039-5.058-63.559 6.382l-44.129 15.272c9.587 16.269 15.89 34.622 17.717 54.378l.945 13.109 29.758 9.41c35.302 15.819 51.871-8.448 75.238-39.186 11.448-15.069 16.507-49.761-15.97-59.365M114.693 237.361c1.818-19.747 8.13-38.109 17.708-54.369L88.272 167.72c-29.511-11.449-53.716-9.295-63.55-6.382-32.486 9.604-27.418 44.297-15.969 59.366 23.367 30.738 39.936 55.005 75.229 39.186l29.767-9.41.944-13.119z"/><path style="fill:#be3a2b" d="M224.185 335.447h63.629c11.679 0 21.151 9.472 21.151 21.151v7.759c0 4.175-1.236 8.254-3.549 11.732l-25.485 38.215a21.128 21.128 0 0 1-17.593 9.419h-12.676a21.128 21.128 0 0 1-17.593-9.419l-25.485-38.215a21.18 21.18 0 0 1-3.549-11.732v-7.759c-.001-11.679 9.471-21.151 21.15-21.151"/><path style="fill:#fff" d="M308.964 229.516c0 4.873-3.955 8.828-8.828 8.828s-8.828-3.955-8.828-8.828 3.955-8.828 8.828-8.828 8.828 3.955 8.828 8.828M203.033 229.516c0 4.873-3.955 8.828-8.828 8.828-4.873 0-8.828-3.955-8.828-8.828s3.955-8.828 8.828-8.828c4.874 0 8.828 3.955 8.828 8.828"/></svg>